<?xml version="1.0" encoding="UTF-8"?><svg xmlns="http://www.w3.org/2000/svg" xmlns:xlink="http://www.w3.org/1999/xlink" contentScriptType="text/ecmascript" width="375pt" zoomAndPan="magnify" contentStyleType="text/css" viewBox="0 0 375 374.999991" height="374.999991pt" preserveAspectRatio="xMidYMid meet" version="1.2"><defs><g/><clipPath xml:id="clip1" id="clip1"><path d="M 0 126.089844 L 63.609375 126.089844 L 63.609375 265.589844 L 0 265.589844 Z M 0 126.089844 "/></clipPath><clipPath xml:id="clip2" id="clip2"><path d="M 311.382812 125.464844 L 374.851562 125.464844 L 374.851562 264.964844 L 311.382812 264.964844 Z M 311.382812 125.464844 "/></clipPath></defs><g xml:id="surface1" id="surface1"><rect x="0" width="375" y="0" height="374.999991" style="fill:rgb(100%,100%,100%);fill-opacity:1;stroke:none;"/><rect x="0" width="375" y="0" height="374.999991" style="fill:rgb(100%,100%,100%);fill-opacity:1;stroke:none;"/><rect x="0" width="375" y="0" height="374.999991" style="fill:rgb(94.898987%,94.898987%,94.898987%);fill-opacity:1;stroke:none;"/><g style="fill:rgb(0%,0%,0%);fill-opacity:1;"><g transform="translate(100.143142, 240.014279)"><path style="stroke:none;" d="M 98.550781 -3.929688 L 92.792969 -3.929688 L 64.296875 -96.445312 C 63.875 -97.707031 63.03125 -98.269531 61.910156 -98.269531 L 31.164062 -98.269531 C 30.183594 -98.269531 29.339844 -97.425781 29.339844 -96.304688 C 29.339844 -95.179688 30.183594 -94.339844 31.164062 -94.339844 L 39.308594 -94.339844 L 10.109375 -3.929688 L 2.246094 -3.929688 C 1.261719 -3.929688 0.421875 -2.949219 0.421875 -1.964844 C 0.421875 -0.84375 1.261719 0 2.246094 0 L 23.867188 0 C 24.847656 0 25.691406 -0.84375 25.691406 -1.964844 C 25.691406 -2.949219 24.847656 -3.929688 23.867188 -3.929688 L 14.460938 -3.929688 L 22.179688 -27.796875 L 62.894531 -27.796875 L 70.332031 -3.929688 L 62.472656 -3.929688 C 61.488281 -3.929688 60.648438 -2.949219 60.648438 -1.964844 C 60.648438 -0.84375 61.488281 0 62.472656 0 L 98.550781 0 C 99.535156 0 100.375 -0.84375 100.375 -1.964844 C 100.375 -2.949219 99.535156 -3.929688 98.550781 -3.929688 Z M 74.683594 -3.929688 L 46.890625 -94.339844 L 60.648438 -94.339844 L 88.441406 -3.929688 Z M 61.769531 -31.726562 L 23.445312 -31.726562 L 43.097656 -92.234375 Z M 61.769531 -31.726562 "/></g></g><g style="fill:rgb(0%,0%,0%);fill-opacity:1;"><g transform="translate(201.358824, 240.014279)"><path style="stroke:none;" d="M 72.4375 -22.320312 C 71.316406 -22.320312 70.332031 -21.480469 70.332031 -20.496094 L 70.332031 -3.929688 L 37.484375 -3.929688 L 37.484375 -94.339844 L 44.503906 -94.339844 C 45.484375 -94.339844 46.46875 -95.179688 46.46875 -96.304688 C 46.46875 -97.425781 45.484375 -98.269531 44.503906 -98.269531 L 10.527344 -98.269531 C 9.546875 -98.269531 8.703125 -97.425781 8.703125 -96.304688 C 8.703125 -95.179688 9.546875 -94.339844 10.527344 -94.339844 L 15.582031 -94.339844 L 15.582031 -3.929688 L 9.6875 -3.929688 C 8.5625 -3.929688 7.722656 -2.949219 7.722656 -1.964844 C 7.722656 -0.703125 8.5625 0 9.6875 0 L 72.578125 0 C 73.703125 0 74.542969 -0.703125 74.542969 -1.964844 L 74.542969 -20.496094 C 74.542969 -21.480469 73.5625 -22.320312 72.4375 -22.320312 Z M 19.792969 -3.929688 L 19.792969 -94.339844 L 33.269531 -94.339844 L 33.269531 -3.929688 Z M 19.792969 -3.929688 "/></g></g><g clip-rule="nonzero" clip-path="url(#clip1)"><path style=" stroke:none;fill-rule:nonzero;fill:rgb(0%,0%,0%);fill-opacity:1;" d="M 63.425781 193.460938 C 63.164062 193.234375 62.867188 193.289062 62.582031 193.394531 C 62.300781 193.488281 62.023438 193.605469 61.761719 193.746094 C 61.050781 194.140625 60.335938 194.523438 59.660156 194.972656 C 58.058594 196.035156 56.503906 197.171875 54.921875 198.261719 C 52.625 199.847656 50.566406 201.710938 48.480469 203.546875 C 46.808594 205.019531 45.371094 206.722656 43.949219 208.4375 C 43.15625 209.394531 42.445312 210.410156 41.753906 211.441406 C 41.671875 211.5625 41.65625 211.757812 41.367188 211.746094 C 41.433594 211.324219 41.445312 210.890625 41.574219 210.496094 C 41.972656 209.277344 42.382812 208.0625 42.839844 206.867188 C 43.34375 205.550781 43.917969 204.261719 44.4375 202.949219 C 45 201.515625 45.535156 200.074219 46.074219 198.632812 C 46.390625 197.792969 46.730469 196.960938 46.984375 196.101562 C 47.195312 195.40625 47.414062 194.714844 47.65625 194.03125 C 48.042969 192.949219 48.464844 191.875 48.691406 190.734375 C 48.824219 190.0625 49.054688 189.414062 49.230469 188.75 C 49.589844 187.429688 49.949219 186.109375 50.292969 184.785156 C 50.417969 184.320312 50.417969 183.851562 50.292969 183.386719 C 50.242188 183.222656 50.171875 183.066406 50.085938 182.921875 C 49.988281 182.746094 49.667969 182.644531 49.527344 182.753906 C 48.886719 183.25 48.238281 183.726562 47.808594 184.449219 C 47.324219 185.257812 46.796875 186.039062 46.277344 186.820312 C 45.875 187.425781 45.429688 188.003906 45.039062 188.617188 C 44.28125 189.804688 43.582031 191.03125 42.757812 192.179688 C 42.261719 192.875 41.824219 193.617188 41.386719 194.351562 C 40.839844 195.269531 40.308594 196.195312 39.789062 197.128906 C 39.222656 198.136719 38.605469 199.121094 38.132812 200.167969 C 36.8125 203.085938 35.660156 206.066406 34.84375 209.195312 C 34.667969 208.457031 34.675781 207.730469 34.613281 207.011719 C 34.476562 205.382812 34.5 203.761719 34.679688 202.140625 C 34.835938 200.695312 34.984375 199.25 35.125 197.800781 C 35.148438 197.550781 35.082031 197.28125 35.136719 197.042969 C 35.566406 195.289062 35.683594 193.488281 35.898438 191.703125 C 36.433594 187.273438 36.914062 182.839844 37.414062 178.40625 C 37.523438 177.414062 37.8125 176.484375 38.1875 175.566406 C 38.3125 175.246094 38.503906 174.964844 38.753906 174.726562 C 39.34375 174.171875 39.910156 173.585938 40.523438 173.058594 C 41.054688 172.601562 41.449219 172.054688 41.816406 171.476562 C 42.640625 170.164062 43.210938 168.730469 43.769531 167.296875 C 44.496094 165.429688 45.109375 163.511719 45.828125 161.640625 C 46.0625 161.03125 46.101562 160.390625 46.3125 159.777344 C 46.90625 158.042969 47.441406 156.285156 47.996094 154.535156 C 48.019531 154.453125 48.042969 154.371094 48.054688 154.285156 C 48.410156 152.5625 49.007812 150.910156 49.582031 149.257812 C 50.242188 147.359375 50.917969 145.472656 51.519531 143.554688 C 51.992188 142.042969 52.5625 140.570312 53.140625 139.097656 C 54.292969 136.15625 55.261719 133.144531 56.289062 130.152344 C 56.601562 129.242188 56.625 128.308594 56.789062 127.382812 C 56.84375 127.070312 56.730469 126.789062 56.628906 126.507812 C 56.601562 126.425781 56.558594 126.351562 56.496094 126.292969 C 56.4375 126.230469 56.367188 126.183594 56.285156 126.15625 C 56.203125 126.128906 56.117188 126.117188 56.03125 126.128906 C 55.945312 126.140625 55.867188 126.167969 55.796875 126.214844 C 55.613281 126.328125 55.4375 126.449219 55.273438 126.585938 C 54.046875 127.535156 53.105469 128.761719 52.117188 129.933594 C 51.292969 130.914062 50.5625 131.972656 49.804688 133.007812 C 48.035156 135.429688 46.460938 137.976562 45.207031 140.703125 C 44.902344 141.363281 44.585938 142.019531 44.28125 142.675781 C 43.183594 145.085938 42.050781 147.476562 41.289062 150.027344 C 40.605469 152.320312 39.664062 154.53125 39.234375 156.894531 C 39.210938 157.019531 39.136719 157.132812 39.097656 157.253906 C 38.628906 158.675781 38.328125 160.148438 38.054688 161.609375 C 37.71875 163.421875 37.585938 165.269531 37.375 167.101562 C 37.34375 167.355469 37.300781 167.621094 37.339844 167.871094 C 37.636719 169.957031 37.367188 172.058594 37.535156 174.148438 C 37.554688 174.390625 37.449219 174.648438 37.386719 174.894531 C 37.09375 176.011719 36.75 177.113281 36.632812 178.273438 C 36.539062 179.210938 36.414062 180.148438 36.289062 181.082031 C 36.222656 181.59375 36.179688 182.113281 36.039062 182.605469 C 35.898438 183.101562 35.804688 183.605469 35.753906 184.117188 C 35.371094 187.3125 34.988281 190.507812 34.621094 193.707031 C 34.433594 195.371094 34.289062 197.039062 34.105469 198.703125 C 34.066406 199.0625 34.121094 199.457031 33.839844 199.773438 C 33.664062 199.519531 33.78125 199.253906 33.75 199.003906 C 33.488281 196.886719 33.265625 194.757812 32.945312 192.648438 C 32.726562 191.214844 32.480469 189.765625 31.972656 188.40625 C 31.078125 185.996094 30.359375 183.53125 29.457031 181.125 C 28.796875 179.367188 28.292969 177.546875 27.71875 175.75 C 27.640625 175.507812 27.558594 175.261719 27.46875 175.019531 C 26.054688 171.296875 24.800781 167.515625 23.519531 163.746094 C 23.121094 162.570312 22.707031 161.402344 22.253906 160.242188 C 21.472656 158.25 20.65625 156.273438 19.855469 154.289062 C 19.359375 153.058594 18.902344 151.808594 18.359375 150.601562 C 17.851562 149.472656 17.269531 148.371094 16.203125 147.652344 C 15.742188 147.988281 15.75 147.988281 15.695312 148.332031 C 15.46875 149.613281 15.546875 150.890625 15.699219 152.175781 C 15.84375 153.410156 16.160156 154.613281 16.359375 155.835938 C 16.65625 157.652344 16.984375 159.460938 17.445312 161.242188 C 17.753906 162.441406 18.097656 163.636719 18.445312 164.828125 C 18.78125 165.980469 19.125 167.128906 19.496094 168.269531 C 20.023438 169.898438 20.621094 171.503906 21.101562 173.148438 C 21.800781 175.535156 22.730469 177.839844 23.574219 180.171875 C 23.910156 181.097656 24.257812 182.019531 24.570312 182.953125 C 24.730469 183.441406 24.917969 183.917969 25.109375 184.394531 C 25.441406 185.226562 25.800781 186.050781 26.125 186.886719 C 26.925781 188.921875 27.710938 190.957031 28.507812 192.992188 C 28.648438 193.351562 28.800781 193.703125 28.964844 194.054688 C 29.621094 195.449219 30.3125 196.828125 30.929688 198.238281 C 31.292969 199.070312 31.707031 199.875 32.273438 200.566406 C 32.9375 201.386719 33.179688 202.40625 33.695312 203.289062 C 33.792969 203.457031 33.773438 203.707031 33.769531 203.917969 C 33.695312 206.148438 33.835938 208.363281 34.117188 210.574219 C 34.167969 210.914062 34.183594 211.253906 34.15625 211.59375 C 34.082031 212.363281 34.058594 213.140625 33.941406 213.902344 C 33.597656 216.152344 33.421875 218.417969 33.191406 220.679688 C 33.160156 220.894531 33.140625 221.105469 33.132812 221.320312 C 33.148438 223.074219 33.226562 224.828125 33.34375 226.574219 C 33.390625 227.253906 33.433594 227.945312 33.59375 228.605469 C 34.121094 230.773438 34.84375 232.871094 35.984375 234.8125 C 36.265625 235.285156 36.546875 235.792969 36.558594 236.367188 C 36.574219 237.058594 36.777344 237.699219 36.960938 238.355469 C 37.71875 241.074219 38.457031 243.800781 39.199219 246.527344 C 39.242188 246.6875 39.285156 246.863281 39.101562 247.015625 C 38.519531 246.34375 37.964844 245.640625 37.351562 245 C 36.226562 243.832031 35.058594 242.699219 33.921875 241.539062 C 32.421875 240.011719 30.878906 238.539062 29.214844 237.191406 C 27.984375 236.195312 26.640625 235.355469 25.386719 234.398438 C 24.230469 233.515625 23.089844 232.613281 21.988281 231.664062 C 20.859375 230.691406 19.761719 229.671875 18.691406 228.632812 C 16.761719 226.753906 14.855469 224.851562 12.949219 222.941406 C 12.164062 222.15625 11.429688 221.320312 10.648438 220.527344 C 9.597656 219.464844 8.527344 218.417969 7.46875 217.363281 C 6.53125 216.429688 5.613281 215.476562 4.660156 214.558594 C 3.605469 213.546875 2.445312 212.675781 1.097656 212.09375 C 0.863281 211.992188 0.617188 211.929688 0.363281 211.902344 C 0.273438 211.894531 0.0976562 212.015625 0.0859375 212.097656 C 0.0390625 212.390625 0 212.699219 0.0429688 212.988281 C 0.183594 213.933594 0.484375 214.824219 0.945312 215.660156 C 1.441406 216.5625 1.945312 217.457031 2.5 218.320312 C 3.703125 220.1875 4.835938 222.113281 6.34375 223.765625 C 7.214844 225.207031 8.410156 226.382812 9.542969 227.597656 C 11.175781 229.34375 12.800781 231.105469 14.601562 232.691406 C 15.851562 233.792969 17.046875 234.957031 18.289062 236.070312 C 18.828125 236.554688 19.40625 236.996094 19.984375 237.4375 C 22.46875 239.332031 25.160156 240.902344 27.835938 242.5 C 29.777344 243.660156 31.773438 244.722656 33.726562 245.867188 C 35.382812 246.839844 37.011719 247.859375 38.640625 248.871094 C 39.078125 249.144531 39.464844 249.484375 39.886719 249.773438 C 40.179688 249.972656 40.371094 250.246094 40.46875 250.585938 C 40.667969 251.195312 40.90625 251.796875 41.085938 252.410156 C 41.960938 255.378906 43.148438 258.222656 44.519531 260.988281 C 45.203125 262.371094 45.898438 263.746094 46.398438 265.210938 C 46.4375 265.335938 46.507812 265.4375 46.609375 265.519531 C 46.71875 265.589844 46.839844 265.609375 46.964844 265.582031 C 47.085938 265.539062 47.171875 265.457031 47.214844 265.332031 C 47.253906 265.164062 47.25 265 47.195312 264.835938 C 47.019531 264.308594 46.8125 263.792969 46.582031 263.289062 C 45.9375 261.941406 45.226562 260.621094 44.621094 259.253906 C 43.300781 256.277344 42.1875 253.226562 41.199219 250.121094 C 40.261719 247.183594 39.367188 244.238281 38.550781 241.265625 C 38.15625 239.820312 37.8125 238.363281 37.429688 236.914062 C 37.238281 236.238281 37.25 235.570312 37.464844 234.902344 C 37.570312 234.578125 37.667969 234.25 37.777344 233.925781 C 38.058594 233.074219 38.417969 232.242188 38.613281 231.371094 C 38.917969 230.035156 39.113281 228.679688 39.339844 227.328125 C 39.417969 226.90625 39.472656 226.480469 39.496094 226.054688 C 39.535156 225.085938 39.867188 224.226562 40.367188 223.414062 C 41.265625 221.960938 42.097656 220.464844 43.28125 219.199219 C 44.167969 218.269531 44.992188 217.285156 45.753906 216.25 C 47.085938 214.40625 48.648438 212.765625 50.148438 211.070312 C 52.105469 208.859375 54.082031 206.671875 55.996094 204.421875 C 57.242188 202.960938 58.40625 201.425781 59.582031 199.902344 C 60.417969 198.820312 61.238281 197.726562 62.015625 196.601562 C 62.523438 195.867188 62.953125 195.070312 63.40625 194.296875 C 63.609375 193.941406 63.601562 193.613281 63.425781 193.460938 Z M 63.425781 193.460938 "/></g><g clip-rule="nonzero" clip-path="url(#clip2)"><path style=" stroke:none;fill-rule:nonzero;fill:rgb(0%,0%,0%);fill-opacity:1;" d="M 311.566406 192.832031 C 311.828125 192.609375 312.125 192.664062 312.410156 192.765625 C 312.695312 192.863281 312.96875 192.980469 313.234375 193.121094 C 313.941406 193.515625 314.660156 193.898438 315.332031 194.347656 C 316.933594 195.410156 318.488281 196.542969 320.070312 197.636719 C 322.367188 199.222656 324.425781 201.085938 326.511719 202.921875 C 328.183594 204.394531 329.621094 206.09375 331.042969 207.8125 C 331.835938 208.769531 332.546875 209.78125 333.242188 210.816406 C 333.324219 210.9375 333.339844 211.132812 333.628906 211.121094 C 333.558594 210.699219 333.546875 210.265625 333.417969 209.867188 C 333.023438 208.648438 332.609375 207.4375 332.152344 206.238281 C 331.648438 204.925781 331.074219 203.632812 330.558594 202.324219 C 329.992188 200.890625 329.457031 199.449219 328.917969 198.007812 C 328.605469 197.167969 328.265625 196.335938 328.007812 195.476562 C 327.800781 194.78125 327.582031 194.089844 327.335938 193.40625 C 326.949219 192.320312 326.527344 191.246094 326.300781 190.109375 C 326.167969 189.4375 325.9375 188.785156 325.761719 188.125 C 325.402344 186.804688 325.042969 185.484375 324.703125 184.160156 C 324.574219 183.691406 324.574219 183.226562 324.703125 182.757812 C 324.753906 182.597656 324.820312 182.441406 324.90625 182.296875 C 325.003906 182.121094 325.324219 182.019531 325.464844 182.128906 C 326.105469 182.625 326.753906 183.101562 327.183594 183.824219 C 327.667969 184.632812 328.195312 185.410156 328.714844 186.195312 C 329.121094 186.800781 329.5625 187.378906 329.953125 187.988281 C 330.710938 189.179688 331.414062 190.40625 332.234375 191.554688 C 332.734375 192.25 333.167969 192.992188 333.605469 193.726562 C 334.152344 194.644531 334.683594 195.570312 335.207031 196.503906 C 335.769531 197.507812 336.386719 198.496094 336.863281 199.542969 C 338.179688 202.460938 339.335938 205.441406 340.148438 208.570312 C 340.324219 207.832031 340.316406 207.105469 340.378906 206.382812 C 340.515625 204.757812 340.492188 203.132812 340.3125 201.511719 C 340.15625 200.066406 340.007812 198.621094 339.871094 197.175781 C 339.84375 196.925781 339.914062 196.65625 339.855469 196.417969 C 339.425781 194.664062 339.308594 192.863281 339.09375 191.078125 C 338.5625 186.648438 338.078125 182.214844 337.582031 177.777344 C 337.46875 176.785156 337.179688 175.859375 336.804688 174.941406 C 336.679688 174.617188 336.492188 174.339844 336.242188 174.101562 C 335.648438 173.546875 335.085938 172.957031 334.46875 172.429688 C 333.941406 171.976562 333.546875 171.429688 333.179688 170.847656 C 332.351562 169.539062 331.785156 168.101562 331.222656 166.671875 C 330.496094 164.804688 329.882812 162.886719 329.164062 161.011719 C 328.933594 160.402344 328.890625 159.765625 328.679688 159.152344 C 328.085938 157.417969 327.550781 155.660156 326.996094 153.910156 C 326.972656 153.828125 326.953125 153.746094 326.9375 153.660156 C 326.585938 151.9375 325.984375 150.285156 325.410156 148.632812 C 324.75 146.730469 324.078125 144.84375 323.476562 142.929688 C 323 141.417969 322.429688 139.945312 321.855469 138.472656 C 320.699219 135.527344 319.730469 132.519531 318.707031 129.527344 C 318.390625 128.613281 318.367188 127.679688 318.203125 126.757812 C 318.148438 126.445312 318.265625 126.164062 318.363281 125.878906 C 318.390625 125.796875 318.433594 125.726562 318.496094 125.664062 C 318.558594 125.605469 318.628906 125.558594 318.710938 125.53125 C 318.792969 125.5 318.875 125.492188 318.960938 125.503906 C 319.046875 125.511719 319.125 125.542969 319.199219 125.589844 C 319.378906 125.699219 319.554688 125.824219 319.722656 125.957031 C 320.949219 126.90625 321.886719 128.136719 322.875 129.308594 C 323.699219 130.289062 324.429688 131.347656 325.1875 132.382812 C 326.957031 134.804688 328.53125 137.351562 329.785156 140.078125 C 330.089844 140.734375 330.410156 141.394531 330.710938 142.050781 C 331.8125 144.460938 332.941406 146.851562 333.703125 149.402344 C 334.386719 151.691406 335.328125 153.90625 335.757812 156.269531 C 335.78125 156.394531 335.855469 156.507812 335.894531 156.628906 C 336.363281 158.050781 336.664062 159.523438 336.9375 160.984375 C 337.277344 162.792969 337.40625 164.644531 337.621094 166.476562 C 337.652344 166.730469 337.691406 166.996094 337.652344 167.246094 C 337.359375 169.332031 337.625 171.433594 337.457031 173.519531 C 337.4375 173.765625 337.542969 174.023438 337.609375 174.269531 C 337.898438 175.386719 338.246094 176.488281 338.359375 177.648438 C 338.453125 178.585938 338.582031 179.519531 338.703125 180.457031 C 338.773438 180.96875 338.8125 181.488281 338.957031 181.976562 C 339.09375 182.472656 339.1875 182.980469 339.242188 183.492188 C 339.621094 186.6875 340.007812 189.882812 340.371094 193.082031 C 340.5625 194.742188 340.703125 196.410156 340.886719 198.074219 C 340.925781 198.433594 340.875 198.832031 341.15625 199.148438 C 341.332031 198.890625 341.214844 198.628906 341.242188 198.378906 C 341.503906 196.261719 341.730469 194.132812 342.050781 192.023438 C 342.265625 190.589844 342.511719 189.140625 343.019531 187.777344 C 343.914062 185.367188 344.632812 182.90625 345.535156 180.5 C 346.199219 178.738281 346.699219 176.917969 347.273438 175.125 C 347.351562 174.882812 347.433594 174.636719 347.523438 174.394531 C 348.9375 170.667969 350.191406 166.890625 351.472656 163.121094 C 351.875 161.945312 352.285156 160.773438 352.738281 159.617188 C 353.519531 157.625 354.339844 155.648438 355.136719 153.660156 C 355.636719 152.429688 356.089844 151.183594 356.632812 149.972656 C 357.144531 148.84375 357.722656 147.746094 358.792969 147.027344 C 359.25 147.363281 359.242188 147.363281 359.300781 147.707031 C 359.527344 148.988281 359.445312 150.265625 359.292969 151.546875 C 359.148438 152.785156 358.832031 153.984375 358.632812 155.210938 C 358.339844 157.027344 358.007812 158.832031 357.550781 160.613281 C 357.238281 161.816406 356.894531 163.011719 356.546875 164.203125 C 356.210938 165.355469 355.867188 166.503906 355.5 167.640625 C 354.972656 169.269531 354.371094 170.878906 353.890625 172.519531 C 353.191406 174.910156 352.265625 177.214844 351.417969 179.546875 C 351.082031 180.472656 350.734375 181.394531 350.421875 182.328125 C 350.261719 182.8125 350.074219 183.292969 349.882812 183.765625 C 349.550781 184.601562 349.191406 185.425781 348.867188 186.261719 C 348.066406 188.292969 347.28125 190.332031 346.484375 192.367188 C 346.34375 192.722656 346.195312 193.078125 346.027344 193.425781 C 345.375 194.824219 344.679688 196.203125 344.066406 197.613281 C 343.699219 198.445312 343.285156 199.246094 342.722656 199.941406 C 342.054688 200.761719 341.8125 201.777344 341.296875 202.664062 C 341.199219 202.832031 341.21875 203.082031 341.226562 203.292969 C 341.296875 205.519531 341.15625 207.738281 340.878906 209.945312 C 340.824219 210.285156 340.8125 210.628906 340.835938 210.96875 C 340.910156 211.738281 340.933594 212.515625 341.050781 213.277344 C 341.398438 215.523438 341.574219 217.792969 341.800781 220.054688 C 341.832031 220.265625 341.851562 220.480469 341.859375 220.695312 C 341.84375 222.449219 341.769531 224.203125 341.648438 225.945312 C 341.601562 226.628906 341.558594 227.320312 341.398438 227.976562 C 340.871094 230.148438 340.148438 232.246094 339.007812 234.1875 C 338.730469 234.660156 338.449219 235.167969 338.433594 235.738281 C 338.417969 236.433594 338.214844 237.074219 338.03125 237.730469 C 337.277344 240.449219 336.535156 243.175781 335.796875 245.898438 C 335.75 246.0625 335.707031 246.238281 335.894531 246.390625 C 336.472656 245.714844 337.027344 245.015625 337.644531 244.375 C 338.765625 243.203125 339.933594 242.074219 341.070312 240.914062 C 342.570312 239.386719 344.113281 237.914062 345.777344 236.566406 C 347.011719 235.566406 348.351562 234.730469 349.609375 233.773438 C 350.761719 232.890625 351.902344 231.988281 353.003906 231.039062 C 354.132812 230.0625 355.230469 229.046875 356.300781 228.003906 C 358.234375 226.125 360.140625 224.222656 362.046875 222.316406 C 362.828125 221.53125 363.566406 220.695312 364.34375 219.902344 C 365.394531 218.835938 366.464844 217.792969 367.523438 216.738281 C 368.460938 215.804688 369.382812 214.847656 370.335938 213.933594 C 371.386719 212.917969 372.546875 212.050781 373.898438 211.46875 C 374.132812 211.367188 374.375 211.304688 374.628906 211.277344 C 374.71875 211.269531 374.894531 211.390625 374.90625 211.472656 C 374.953125 211.765625 374.992188 212.074219 374.949219 212.363281 C 374.8125 213.308594 374.511719 214.199219 374.046875 215.035156 C 373.554688 215.933594 373.046875 216.832031 372.492188 217.695312 C 371.289062 219.5625 370.15625 221.488281 368.652344 223.140625 C 367.777344 224.582031 366.585938 225.757812 365.453125 226.96875 C 363.816406 228.71875 362.195312 230.480469 360.390625 232.066406 C 359.140625 233.164062 357.945312 234.328125 356.707031 235.445312 C 356.167969 235.929688 355.585938 236.371094 355.007812 236.808594 C 352.523438 238.703125 349.832031 240.277344 347.15625 241.871094 C 345.214844 243.03125 343.21875 244.097656 341.269531 245.242188 C 339.613281 246.210938 337.984375 247.230469 336.351562 248.246094 C 335.914062 248.515625 335.527344 248.855469 335.105469 249.148438 C 334.816406 249.347656 334.621094 249.617188 334.523438 249.960938 C 334.328125 250.570312 334.089844 251.167969 333.90625 251.785156 C 333.035156 254.753906 331.84375 257.59375 330.472656 260.363281 C 329.789062 261.742188 329.09375 263.121094 328.59375 264.582031 C 328.558594 264.707031 328.488281 264.8125 328.382812 264.890625 C 328.273438 264.960938 328.15625 264.984375 328.027344 264.957031 C 327.90625 264.914062 327.824219 264.828125 327.777344 264.707031 C 327.738281 264.539062 327.746094 264.375 327.796875 264.207031 C 327.976562 263.683594 328.179688 263.167969 328.410156 262.664062 C 329.054688 261.3125 329.769531 259.996094 330.371094 258.628906 C 331.691406 255.652344 332.804688 252.597656 333.792969 249.496094 C 334.730469 246.558594 335.628906 243.613281 336.441406 240.636719 C 336.835938 239.195312 337.179688 237.734375 337.5625 236.289062 C 337.753906 235.613281 337.746094 234.941406 337.53125 234.273438 C 337.421875 233.953125 337.324219 233.625 337.21875 233.300781 C 336.933594 232.449219 336.578125 231.613281 336.378906 230.742188 C 336.078125 229.410156 335.878906 228.054688 335.652344 226.703125 C 335.574219 226.28125 335.523438 225.855469 335.496094 225.425781 C 335.457031 224.460938 335.128906 223.601562 334.625 222.789062 C 333.726562 221.332031 332.894531 219.835938 331.710938 218.574219 C 330.824219 217.644531 330 216.660156 329.238281 215.625 C 327.90625 213.777344 326.34375 212.140625 324.84375 210.445312 C 322.886719 208.234375 320.914062 206.046875 319 203.796875 C 317.753906 202.335938 316.589844 200.800781 315.414062 199.277344 C 314.578125 198.195312 313.757812 197.101562 312.976562 195.976562 C 312.46875 195.242188 312.039062 194.441406 311.589844 193.671875 C 311.382812 193.316406 311.390625 192.984375 311.566406 192.835938 Z M 311.566406 192.832031 "/></g><g style="fill:rgb(0%,0%,0%);fill-opacity:1;"><g transform="translate(89.027591, 61.970725)"><path style="stroke:none;" d="M -2.515625 -20.78125 L 14.203125 -10.734375 L 10.671875 -8.0625 L 7.421875 -10.15625 L 1.921875 -6 L 3.046875 -2.296875 L -0.484375 0.375 L -5.578125 -18.46875 Z M 4.125 -12.1875 L -0.65625 -15.171875 L -0.6875 -15.140625 L 0.875 -9.71875 Z M 4.125 -12.1875 "/></g></g><g style="fill:rgb(0%,0%,0%);fill-opacity:1;"><g transform="translate(107.638377, 48.534265)"><path style="stroke:none;" d="M -1.921875 -19.984375 C -1.054688 -20.453125 -0.148438 -20.789062 0.796875 -21 C 1.753906 -21.207031 2.5 -21.296875 3.03125 -21.265625 L 3.828125 -21.203125 L 3.96875 -17.515625 C 3.8125 -17.535156 3.59375 -17.546875 3.3125 -17.546875 C 3.039062 -17.554688 2.566406 -17.507812 1.890625 -17.40625 C 1.210938 -17.300781 0.628906 -17.113281 0.140625 -16.84375 C -0.460938 -16.507812 -0.851562 -16.125 -1.03125 -15.6875 C -1.21875 -15.25 -1.1875 -14.8125 -0.9375 -14.375 C -0.820312 -14.164062 -0.640625 -14.007812 -0.390625 -13.90625 C -0.140625 -13.800781 0.226562 -13.742188 0.71875 -13.734375 C 1.21875 -13.734375 1.644531 -13.742188 2 -13.765625 C 2.351562 -13.796875 2.890625 -13.847656 3.609375 -13.921875 C 4.878906 -14.054688 6.082031 -13.945312 7.21875 -13.59375 C 8.351562 -13.238281 9.179688 -12.585938 9.703125 -11.640625 C 10.203125 -10.742188 10.476562 -9.863281 10.53125 -9 C 10.582031 -8.132812 10.425781 -7.351562 10.0625 -6.65625 C 9.707031 -5.96875 9.234375 -5.335938 8.640625 -4.765625 C 8.054688 -4.203125 7.363281 -3.695312 6.5625 -3.25 C 5.863281 -2.863281 5.140625 -2.554688 4.390625 -2.328125 C 3.648438 -2.109375 3 -1.976562 2.4375 -1.9375 C 1.875 -1.894531 1.351562 -1.875 0.875 -1.875 C 0.40625 -1.882812 0.0507812 -1.921875 -0.1875 -1.984375 L -0.5625 -2.046875 L -0.421875 -6.078125 C -0.203125 -6.035156 0.09375 -5.988281 0.46875 -5.9375 C 0.851562 -5.882812 1.476562 -5.878906 2.34375 -5.921875 C 3.207031 -5.960938 3.90625 -6.128906 4.4375 -6.421875 C 5.957031 -7.265625 6.429688 -8.207031 5.859375 -9.25 C 5.742188 -9.46875 5.578125 -9.640625 5.359375 -9.765625 C 5.148438 -9.898438 4.859375 -9.984375 4.484375 -10.015625 C 4.109375 -10.046875 3.785156 -10.054688 3.515625 -10.046875 C 3.242188 -10.035156 2.804688 -10.007812 2.203125 -9.96875 C 1.597656 -9.925781 1.148438 -9.898438 0.859375 -9.890625 C -0.359375 -9.835938 -1.429688 -10.019531 -2.359375 -10.4375 C -3.285156 -10.851562 -3.972656 -11.472656 -4.421875 -12.296875 C -5.203125 -13.710938 -5.3125 -15.160156 -4.75 -16.640625 C -4.195312 -18.128906 -3.253906 -19.242188 -1.921875 -19.984375 Z M -1.921875 -19.984375 "/></g></g><g style="fill:rgb(0%,0%,0%);fill-opacity:1;"><g transform="translate(125.747153, 38.907593)"><path style="stroke:none;" d="M 16.65625 -6.28125 L 11.328125 -4.28125 L 2.390625 -9.09375 L 5.09375 -1.921875 L 1.234375 -0.46875 L -5.15625 -17.390625 L -1.296875 -18.84375 L 1.3125 -11.9375 L 4.515625 -21.046875 L 9.1875 -22.8125 L 5.40625 -12.21875 Z M 16.65625 -6.28125 "/></g></g><g style="fill:rgb(0%,0%,0%);fill-opacity:1;"><g transform="translate(159.187834, 28.438651)"><path style="stroke:none;" d="M 0.03125 -4.8125 C -0.03125 -5.34375 0.0234375 -5.867188 0.203125 -6.390625 C 0.378906 -6.910156 0.671875 -7.40625 1.078125 -7.875 C 1.484375 -8.34375 1.894531 -8.757812 2.3125 -9.125 C 2.726562 -9.488281 3.210938 -9.867188 3.765625 -10.265625 C 2.367188 -11.617188 1.597656 -12.867188 1.453125 -14.015625 C 1.265625 -15.429688 1.617188 -16.625 2.515625 -17.59375 C 3.410156 -18.570312 4.769531 -19.175781 6.59375 -19.40625 C 8.28125 -19.625 9.648438 -19.320312 10.703125 -18.5 C 11.765625 -17.6875 12.375 -16.664062 12.53125 -15.4375 C 12.59375 -14.914062 12.53125 -14.394531 12.34375 -13.875 C 12.15625 -13.363281 11.910156 -12.914062 11.609375 -12.53125 C 11.304688 -12.144531 11 -11.800781 10.6875 -11.5 C 10.382812 -11.195312 10.113281 -10.960938 9.875 -10.796875 L 9.53125 -10.546875 L 12.234375 -8.375 C 12.734375 -8.675781 13.519531 -9.539062 14.59375 -10.96875 L 17.421875 -8.8125 C 16.722656 -7.78125 15.984375 -6.859375 15.203125 -6.046875 L 19.59375 -2.5 L 14.421875 -1.84375 L 12.40625 -3.453125 C 11.90625 -2.992188 11.535156 -2.664062 11.296875 -2.46875 C 11.054688 -2.269531 10.691406 -2.007812 10.203125 -1.6875 C 9.722656 -1.363281 9.21875 -1.113281 8.6875 -0.9375 C 8.164062 -0.757812 7.578125 -0.628906 6.921875 -0.546875 C 6.359375 -0.472656 5.789062 -0.445312 5.21875 -0.46875 C 4.65625 -0.5 4.078125 -0.597656 3.484375 -0.765625 C 2.898438 -0.941406 2.375 -1.179688 1.90625 -1.484375 C 1.445312 -1.796875 1.046875 -2.234375 0.703125 -2.796875 C 0.359375 -3.359375 0.132812 -4.03125 0.03125 -4.8125 Z M 6.953125 -16.53125 C 6.429688 -16.46875 6.0625 -16.25 5.84375 -15.875 C 5.625 -15.507812 5.550781 -15.066406 5.625 -14.546875 C 5.664062 -14.234375 5.816406 -13.90625 6.078125 -13.5625 C 6.347656 -13.226562 6.601562 -12.960938 6.84375 -12.765625 L 7.203125 -12.515625 C 8.441406 -13.398438 9.015625 -14.21875 8.921875 -14.96875 C 8.765625 -16.15625 8.109375 -16.675781 6.953125 -16.53125 Z M 9.40625 -5.859375 L 6.203125 -8.28125 C 6.148438 -8.269531 6.082031 -8.238281 6 -8.1875 C 5.914062 -8.144531 5.773438 -8.035156 5.578125 -7.859375 C 5.378906 -7.691406 5.207031 -7.515625 5.0625 -7.328125 C 4.925781 -7.148438 4.804688 -6.910156 4.703125 -6.609375 C 4.609375 -6.316406 4.582031 -6.019531 4.625 -5.71875 C 4.6875 -5.238281 4.9375 -4.894531 5.375 -4.6875 C 5.8125 -4.476562 6.296875 -4.410156 6.828125 -4.484375 C 7.265625 -4.535156 7.695312 -4.671875 8.125 -4.890625 C 8.5625 -5.117188 8.882812 -5.335938 9.09375 -5.546875 Z M 9.40625 -5.859375 "/></g></g><g style="fill:rgb(0%,0%,0%);fill-opacity:1;"><g transform="translate(195.223336, 26.124255)"><path style="stroke:none;" d="M 7.078125 -17.515625 L 5.75 -3.109375 L 11.953125 -2.546875 L 11.625 1.0625 L 1.3125 0.125 L 2.96875 -17.890625 Z M 7.078125 -17.515625 "/></g></g><g style="fill:rgb(0%,0%,0%);fill-opacity:1;"><g transform="translate(213.387981, 28.139218)"><path style="stroke:none;" d="M 15.234375 -15.21875 L 14.46875 -11.6875 L 8.375 -13 L 7.609375 -9.46875 L 13.453125 -8.21875 L 12.6875 -4.703125 L 6.84375 -5.953125 L 6.078125 -2.390625 L 12.171875 -1.078125 L 11.40625 2.46875 L 1.28125 0.28125 L 5.109375 -17.40625 Z M 15.234375 -15.21875 "/></g></g><g style="fill:rgb(0%,0%,0%);fill-opacity:1;"><g transform="translate(231.446476, 32.291298)"><path style="stroke:none;" d="M 16.0625 -13.40625 L 16.734375 6.09375 L 12.5625 4.578125 L 12.546875 0.71875 L 6.078125 -1.640625 L 3.578125 1.3125 L -0.578125 -0.203125 L 12.46875 -14.703125 Z M 12.46875 -3.15625 L 12.390625 -8.796875 L 12.34375 -8.8125 L 8.640625 -4.546875 Z M 12.46875 -3.15625 "/></g></g><g style="fill:rgb(0%,0%,0%);fill-opacity:1;"><g transform="translate(252.834502, 40.588205)"><path style="stroke:none;" d="M 9.75 -15.296875 L 15.4375 -12.21875 C 16.96875 -11.394531 18 -10.3125 18.53125 -8.96875 C 19.0625 -7.632812 18.914062 -6.207031 18.09375 -4.6875 C 17.46875 -3.519531 16.644531 -2.695312 15.625 -2.21875 C 14.601562 -1.738281 13.507812 -1.609375 12.34375 -1.828125 L 14.265625 7.703125 L 9.65625 5.21875 L 8.1875 -3.71875 L 4.78125 2.578125 L 1.15625 0.625 Z M 9.5625 -6.28125 L 9.984375 -6.046875 C 10.328125 -5.859375 10.617188 -5.707031 10.859375 -5.59375 C 11.097656 -5.476562 11.382812 -5.378906 11.71875 -5.296875 C 12.0625 -5.222656 12.359375 -5.207031 12.609375 -5.25 C 12.859375 -5.289062 13.117188 -5.410156 13.390625 -5.609375 C 13.671875 -5.816406 13.914062 -6.113281 14.125 -6.5 C 14.332031 -6.882812 14.441406 -7.242188 14.453125 -7.578125 C 14.472656 -7.921875 14.429688 -8.210938 14.328125 -8.453125 C 14.234375 -8.691406 14.054688 -8.925781 13.796875 -9.15625 C 13.546875 -9.394531 13.3125 -9.582031 13.09375 -9.71875 C 12.875 -9.863281 12.59375 -10.03125 12.25 -10.21875 L 11.828125 -10.453125 Z M 9.5625 -6.28125 "/></g></g><g style="fill:rgb(0%,0%,0%);fill-opacity:1;"><g transform="translate(271.537008, 51.076046)"><path style="stroke:none;" d="M 11.09375 -5.71875 L 4.34375 3.265625 L 1.046875 0.78125 L 11.921875 -13.6875 L 15.21875 -11.203125 L 14.234375 2.109375 L 14.265625 2.140625 L 21.015625 -6.84375 L 24.296875 -4.375 L 13.421875 10.09375 L 10.140625 7.625 L 11.140625 -5.6875 Z M 11.09375 -5.71875 "/></g></g><g style="fill:rgb(0%,0%,0%);fill-opacity:1;"><g transform="translate(50.394937, 286.064205)"><path style="stroke:none;" d="M 23.546875 2.109375 L 13.984375 8.796875 C 12.160156 10.066406 10.4375 10.535156 8.8125 10.203125 C 7.195312 9.878906 5.726562 8.769531 4.40625 6.875 C 3.082031 4.976562 2.539062 3.210938 2.78125 1.578125 C 3.03125 -0.0546875 4.066406 -1.507812 5.890625 -2.78125 L 15.453125 -9.46875 L 17.8125 -6.078125 L 9.25 -0.09375 C 8.039062 0.75 7.335938 1.519531 7.140625 2.21875 C 6.941406 2.925781 7.140625 3.703125 7.734375 4.546875 C 8.328125 5.398438 8.988281 5.851562 9.71875 5.90625 C 10.445312 5.957031 11.414062 5.5625 12.625 4.71875 L 21.1875 -1.265625 Z M 23.546875 2.109375 "/></g></g><g style="fill:rgb(0%,0%,0%);fill-opacity:1;"><g transform="translate(64.4223, 305.26378)"><path style="stroke:none;" d="M 11.890625 -3.8125 L 3.75 3.9375 L 0.90625 0.953125 L 14.015625 -11.53125 L 16.859375 -8.546875 L 13.6875 4.421875 L 13.71875 4.453125 L 21.859375 -3.296875 L 24.6875 -0.328125 L 11.578125 12.15625 L 8.75 9.1875 L 11.921875 -3.78125 Z M 11.890625 -3.8125 "/></g></g><g style="fill:rgb(0%,0%,0%);fill-opacity:1;"><g transform="translate(82.478755, 323.094347)"><path style="stroke:none;" d="M 15.703125 -10.515625 L 4.203125 3.453125 L 1.015625 0.828125 L 12.515625 -13.140625 Z M 15.703125 -10.515625 "/></g></g><g style="fill:rgb(0%,0%,0%);fill-opacity:1;"><g transform="translate(93.369154, 331.780033)"><path style="stroke:none;" d="M 19.828125 -8.546875 L 17.828125 -5.546875 L 12.546875 -9.046875 L 10.546875 -6.046875 L 15.421875 -2.8125 L 13.421875 0.203125 L 8.546875 -3.03125 L 4.53125 3.015625 L 1.09375 0.734375 L 11.109375 -14.328125 Z M 19.828125 -8.546875 "/></g></g><g style="fill:rgb(0%,0%,0%);fill-opacity:1;"><g transform="translate(109.969385, 342.199832)"><path style="stroke:none;" d="M 13.234375 -13.484375 L 4.8125 2.53125 L 1.15625 0.609375 L 9.578125 -15.40625 Z M 13.234375 -13.484375 "/></g></g><g style="fill:rgb(0%,0%,0%);fill-opacity:1;"><g transform="translate(122.403228, 348.493143)"><path style="stroke:none;" d="M 17.5625 -12.453125 L 16.21875 -9.109375 L 10.421875 -11.4375 L 9.09375 -8.078125 L 14.640625 -5.859375 L 13.296875 -2.515625 L 7.75 -4.734375 L 6.390625 -1.34375 L 12.1875 0.984375 L 10.84375 4.34375 L 1.21875 0.484375 L 7.9375 -16.3125 Z M 17.5625 -12.453125 "/></g></g><g style="fill:rgb(0%,0%,0%);fill-opacity:1;"><g transform="translate(141.17974, 355.602276)"><path style="stroke:none;" d="M 5.6875 -17.21875 L 10.78125 -15.9375 C 13.21875 -15.320312 15.09375 -13.960938 16.40625 -11.859375 C 17.71875 -9.753906 18.054688 -7.445312 17.421875 -4.9375 C 16.785156 -2.414062 15.394531 -0.539062 13.25 0.6875 C 11.113281 1.914062 8.816406 2.222656 6.359375 1.609375 L 1.265625 0.328125 Z M 6.171875 -2.25 L 6.796875 -2.09375 C 8.265625 -1.71875 9.582031 -1.90625 10.75 -2.65625 C 11.925781 -3.40625 12.707031 -4.519531 13.09375 -6 C 13.476562 -7.5 13.332031 -8.859375 12.65625 -10.078125 C 11.976562 -11.304688 10.898438 -12.109375 9.421875 -12.484375 L 8.796875 -12.640625 Z M 6.171875 -2.25 "/></g></g><g style="fill:rgb(0%,0%,0%);fill-opacity:1;"><g transform="translate(177.117548, 362.285518)"><path style="stroke:none;" d="M 1.828125 -18.0625 L 8.4375 -17.875 C 10.28125 -17.820312 11.757812 -17.300781 12.875 -16.3125 C 13.988281 -15.332031 14.519531 -13.9375 14.46875 -12.125 C 14.414062 -10.3125 13.796875 -8.90625 12.609375 -7.90625 C 11.421875 -6.914062 9.921875 -6.445312 8.109375 -6.5 L 5.625 -6.5625 L 5.4375 0.15625 L 1.3125 0.03125 Z M 5.71875 -9.84375 L 6.890625 -9.8125 C 7.804688 -9.789062 8.566406 -9.957031 9.171875 -10.3125 C 9.773438 -10.664062 10.085938 -11.265625 10.109375 -12.109375 C 10.140625 -12.972656 9.863281 -13.601562 9.28125 -14 C 8.695312 -14.394531 7.945312 -14.601562 7.03125 -14.625 L 5.859375 -14.65625 Z M 5.71875 -9.84375 "/></g></g><g style="fill:rgb(0%,0%,0%);fill-opacity:1;"><g transform="translate(199.035472, 362.369461)"><path style="stroke:none;" d="M 3.625 -18.53125 L 5.046875 -4.140625 L 11.25 -4.765625 L 11.609375 -1.15625 L 1.3125 -0.125 L -0.46875 -18.125 Z M 3.625 -18.53125 "/></g></g><g style="fill:rgb(0%,0%,0%);fill-opacity:1;"><g transform="translate(218.6666, 360.080913)"><path style="stroke:none;" d="M 6.03125 -20.03125 L 17.328125 -4.140625 L 13.015625 -3.109375 L 10.875 -6.328125 L 4.171875 -4.734375 L 3.703125 -0.890625 L -0.59375 0.140625 L 2.296875 -19.140625 Z M 8.65625 -9.5 L 5.484375 -14.15625 L 5.4375 -14.15625 L 4.6875 -8.5625 Z M 8.65625 -9.5 "/></g></g><g style="fill:rgb(0%,0%,0%);fill-opacity:1;"><g transform="translate(242.399255, 353.744729)"><path style="stroke:none;" d="M -5.109375 -13.5625 L -6.421875 -16.921875 L 5.4375 -21.546875 L 6.75 -18.1875 L 2.734375 -16.625 L 8 -3.125 L 4.15625 -1.625 L -1.109375 -15.125 Z M -5.109375 -13.5625 "/></g></g><g style="fill:rgb(0%,0%,0%);fill-opacity:1;"><g transform="translate(261.188091, 345.908357)"><path style="stroke:none;" d="M 1.78125 -21.515625 L 3.5 -18.34375 L -2.09375 -15.328125 L -0.375 -12.15625 L 4.78125 -14.9375 L 6.484375 -11.75 L 1.328125 -8.96875 L 4.78125 -2.578125 L 1.15625 -0.625 L -7.4375 -16.546875 Z M 1.78125 -21.515625 "/></g></g><g style="fill:rgb(0%,0%,0%);fill-opacity:1;"><g transform="translate(278.524305, 336.23577)"><path style="stroke:none;" d="M -4.984375 -7.578125 C -6.535156 -9.679688 -7.132812 -11.992188 -6.78125 -14.515625 C -6.425781 -17.035156 -5.238281 -19.039062 -3.21875 -20.53125 C -1.175781 -22.039062 1.085938 -22.597656 3.578125 -22.203125 C 6.078125 -21.804688 8.109375 -20.546875 9.671875 -18.421875 C 11.242188 -16.296875 11.863281 -13.988281 11.53125 -11.5 C 11.207031 -9.007812 10.003906 -6.992188 7.921875 -5.453125 C 5.796875 -3.878906 3.507812 -3.300781 1.0625 -3.71875 C -1.375 -4.144531 -3.390625 -5.429688 -4.984375 -7.578125 Z M -1.40625 -10.234375 C -0.84375 -9.472656 -0.210938 -8.863281 0.484375 -8.40625 C 1.191406 -7.945312 2 -7.71875 2.90625 -7.71875 C 3.820312 -7.71875 4.707031 -8.03125 5.5625 -8.65625 C 6.800781 -9.570312 7.421875 -10.6875 7.421875 -12 C 7.421875 -13.320312 6.976562 -14.582031 6.09375 -15.78125 C 5.21875 -16.96875 4.144531 -17.75 2.875 -18.125 C 1.601562 -18.507812 0.359375 -18.25 -0.859375 -17.34375 C -2.054688 -16.457031 -2.664062 -15.347656 -2.6875 -14.015625 C -2.707031 -12.679688 -2.28125 -11.421875 -1.40625 -10.234375 Z M -1.40625 -10.234375 "/></g></g><g style="fill:rgb(0%,0%,0%);fill-opacity:1;"><g transform="translate(299.556711, 319.796314)"><path style="stroke:none;" d="M -11.921875 -13.6875 L -7.359375 -18.28125 C -6.140625 -19.507812 -4.8125 -20.1875 -3.375 -20.3125 C -1.945312 -20.4375 -0.617188 -19.890625 0.609375 -18.671875 C 1.546875 -17.742188 2.097656 -16.722656 2.265625 -15.609375 C 2.441406 -14.503906 2.257812 -13.421875 1.71875 -12.359375 L 11.421875 -11.515625 L 7.71875 -7.78125 L -1.25 -8.90625 L 3.828125 -3.859375 L 0.921875 -0.9375 Z M -3.3125 -10.953125 L -2.96875 -11.296875 C -2.695312 -11.566406 -2.472656 -11.800781 -2.296875 -12 C -2.128906 -12.195312 -1.957031 -12.445312 -1.78125 -12.75 C -1.601562 -13.050781 -1.5 -13.328125 -1.46875 -13.578125 C -1.445312 -13.835938 -1.492188 -14.128906 -1.609375 -14.453125 C -1.722656 -14.773438 -1.9375 -15.085938 -2.25 -15.390625 C -2.5625 -15.703125 -2.878906 -15.914062 -3.203125 -16.03125 C -3.523438 -16.144531 -3.8125 -16.1875 -4.0625 -16.15625 C -4.320312 -16.125 -4.601562 -16.019531 -4.90625 -15.84375 C -5.207031 -15.664062 -5.453125 -15.488281 -5.640625 -15.3125 C -5.835938 -15.132812 -6.070312 -14.910156 -6.34375 -14.640625 L -6.6875 -14.296875 Z M -3.3125 -10.953125 "/></g></g><g style="fill:rgb(0%,0%,0%);fill-opacity:1;"><g transform="translate(315.623057, 303.042161)"><path style="stroke:none;" d="M 9.515625 -13.21875 L 0.3125 -18.796875 L 0.25 -18.703125 L 6.6875 -9.484375 L 5.25 -7.484375 L -5.53125 -10.6875 L -5.59375 -10.609375 L 2.609375 -3.625 L 0.203125 -0.28125 L -13.53125 -12.171875 L -10.96875 -15.734375 L -0.15625 -12.890625 L -6.28125 -22.25 L -3.71875 -25.8125 L 11.921875 -16.5625 Z M 9.515625 -13.21875 "/></g></g></g></svg>